<svg xmlns="http://www.w3.org/2000/svg" width="19" height="19" viewBox="0 0 19 19" fill="none">
  <path fill-rule="evenodd" clip-rule="evenodd" d="M7.3229 15.0417C7.3229 14.8842 7.38546 14.7332 7.49681 14.6218C7.60816 14.5105 7.75918 14.4479 7.91665 14.4479H16.0312C16.1887 14.4479 16.3397 14.5105 16.4511 14.6218C16.5624 14.7332 16.625 14.8842 16.625 15.0417C16.625 15.1991 16.5624 15.3502 16.4511 15.4615C16.3397 15.5729 16.1887 15.6354 16.0312 15.6354H7.91665C7.75918 15.6354 7.60816 15.5729 7.49681 15.4615C7.38546 15.3502 7.3229 15.1991 7.3229 15.0417ZM5.22894 13.0625C5.38642 13.0625 5.53744 13.1251 5.64879 13.2364C5.76014 13.3478 5.82269 13.4988 5.82269 13.6562V15.0417C5.82269 15.1991 5.76014 15.3502 5.64879 15.4615C5.53744 15.5729 5.38642 15.6354 5.22894 15.6354C5.07147 15.6354 4.92045 15.5729 4.8091 15.4615C4.69775 15.3502 4.63519 15.1991 4.63519 15.0417V13.6562C4.63519 13.4988 4.69775 13.3478 4.8091 13.2364C4.92045 13.1251 5.07147 13.0625 5.22894 13.0625ZM5.22894 3.5625C5.38642 3.5625 5.53744 3.62506 5.64879 3.73641C5.76014 3.84776 5.82269 3.99878 5.82269 4.15625V5.54167C5.82269 5.69914 5.76014 5.85016 5.64879 5.96151C5.53744 6.07286 5.38642 6.13542 5.22894 6.13542C5.07147 6.13542 4.92045 6.07286 4.8091 5.96151C4.69775 5.85016 4.63519 5.69914 4.63519 5.54167V4.15625C4.63519 3.99878 4.69775 3.84776 4.8091 3.73641C4.92045 3.62506 5.07147 3.5625 5.22894 3.5625Z" fill="white"/>
  <path fill-rule="evenodd" clip-rule="evenodd" d="M2.34727 7.52874C2.34727 6.01903 3.73506 4.98907 5.28198 4.98907C6.80593 4.98907 8.01243 5.89395 8.24756 6.93341C8.2822 7.0871 8.25437 7.24826 8.17019 7.38144C8.08601 7.51461 7.95238 7.60889 7.79868 7.64353C7.64499 7.67818 7.48383 7.65035 7.35066 7.56617C7.21748 7.48199 7.1232 7.34835 7.08856 7.19466C7.00702 6.83287 6.40377 6.17657 5.28198 6.17657C4.18156 6.17657 3.53477 6.86532 3.53477 7.52795C3.53477 7.73141 3.58227 7.86678 3.64956 7.9697C3.72081 8.07895 3.83402 8.18503 4.01056 8.28953C4.36681 8.50091 4.85052 8.63787 5.44823 8.80728L5.55748 8.83895C6.15518 9.00916 6.86768 9.21895 7.42264 9.60687C8.02431 10.028 8.4431 10.6598 8.4431 11.5884C8.4431 12.3547 7.98552 12.9912 7.41235 13.4108C6.79092 13.8552 6.04594 14.0938 5.28198 14.0932C3.7026 14.0932 2.55389 13.1139 2.20398 11.9914C2.18074 11.9169 2.17239 11.8386 2.17941 11.761C2.18643 11.6833 2.20868 11.6078 2.24488 11.5387C2.28109 11.4697 2.33054 11.4084 2.39042 11.3585C2.4503 11.3085 2.51943 11.2708 2.59387 11.2476C2.66831 11.2244 2.74659 11.216 2.82426 11.223C2.90192 11.2301 2.97744 11.2523 3.04651 11.2885C3.11557 11.3247 3.17683 11.3742 3.22678 11.434C3.27674 11.4939 3.31441 11.5631 3.33764 11.6375C3.53081 12.2566 4.21402 12.9057 5.28198 12.9057C5.81873 12.9057 6.33727 12.726 6.71093 12.4521C7.09093 12.175 7.2556 11.856 7.2556 11.5884C7.2556 11.0865 7.06006 10.8031 6.74102 10.5798C6.37685 10.3241 5.86148 10.1602 5.2321 9.98053L5.08168 9.93857C4.53464 9.78341 3.9021 9.60528 3.40493 9.31078C3.10351 9.14119 2.84595 8.90342 2.65285 8.61649C2.44731 8.29108 2.34112 7.91279 2.34727 7.52795" fill="white"/>
</svg>
