<svg xmlns="http://www.w3.org/2000/svg" width="24" height="25" viewBox="0 0 24 25" fill="none">
  <path d="M12 8.5C16.4183 8.5 20 7.15685 20 5.5C20 3.84315 16.4183 2.5 12 2.5C7.58172 2.5 4 3.84315 4 5.5C4 7.15685 7.58172 8.5 12 8.5Z" stroke="white" stroke-width="1.5" stroke-linecap="round" stroke-linejoin="round"/>
  <path d="M7 11.342C7.602 11.522 8.274 11.672 9 11.782M20 12.5C20 14.157 16.418 15.5 12 15.5C7.582 15.5 4 14.157 4 12.5M7 18.342C7.602 18.522 8.274 18.672 9 18.782" stroke="white" stroke-width="1.5" stroke-linecap="round" stroke-linejoin="round"/>
  <path d="M20 5.5V19.5C20 21.157 16.418 22.5 12 22.5C7.582 22.5 4 21.157 4 19.5V5.5" stroke="white" stroke-width="1.5" stroke-linecap="round" stroke-linejoin="round"/>
</svg>
