<svg xmlns="http://www.w3.org/2000/svg" width="19" height="15" viewBox="0 0 19 15" fill="none">
  <path d="M18.8195 5.83748C18.7625 5.79948 18.2875 5.42898 17.2615 5.42898C16.9955 5.42898 16.7295 5.45748 16.4635 5.50498C16.264 4.17498 15.1525 3.50048 15.105 3.47198L14.8295 3.31048L14.6585 3.56698C14.4305 3.90898 14.25 4.29848 14.174 4.69748C13.984 5.45748 14.098 6.17948 14.4875 6.79698C14.022 7.06298 13.262 7.12948 13.1005 7.12948H0.589C0.266 7.12948 0 7.39548 0 7.72798C0 8.82048 0.171 9.91298 0.551 10.939C0.9785 12.0695 1.6245 12.9055 2.451 13.4185C3.382 13.9885 4.9115 14.3115 6.65 14.3115C7.4005 14.3115 8.1795 14.245 8.949 14.1025C10.013 13.9125 11.039 13.542 11.9795 13.0005C12.7584 12.5551 13.4556 11.98 14.041 11.3C15.0385 10.1885 15.6275 8.92498 16.055 7.83248H16.2355C17.3185 7.83248 17.993 7.39548 18.3635 7.02498C18.6105 6.79698 18.791 6.52148 18.924 6.19848L19 5.97048L18.8195 5.83748ZM1.7575 6.77798H3.4295C3.5055 6.77798 3.5815 6.71148 3.5815 6.62598V5.12498C3.5815 5.04898 3.515 4.97298 3.4295 4.97298H1.7575C1.672 4.97298 1.6055 5.03948 1.6055 5.12498V6.62598C1.615 6.71148 1.672 6.77798 1.7575 6.77798ZM4.066 6.77798H5.738C5.814 6.77798 5.89 6.71148 5.89 6.62598V5.12498C5.89 5.04898 5.8235 4.97298 5.738 4.97298H4.066C3.9805 4.97298 3.914 5.03948 3.914 5.12498V6.62598C3.9235 6.71148 3.9805 6.77798 4.066 6.77798ZM6.4125 6.77798H8.075C8.17 6.77798 8.2365 6.71148 8.2365 6.62598V5.12498C8.2365 5.04898 8.1795 4.97298 8.075 4.97298H6.4125C6.3365 4.97298 6.27 5.03948 6.27 5.12498V6.62598C6.27 6.71148 6.327 6.77798 6.4125 6.77798ZM8.7305 6.77798H10.412C10.488 6.77798 10.5545 6.71148 10.5545 6.62598V5.12498C10.5545 5.04898 10.4975 4.97298 10.412 4.97298H8.7305C8.6545 4.97298 8.588 5.03948 8.588 5.12498V6.62598C8.588 6.71148 8.6545 6.77798 8.7305 6.77798ZM4.066 4.64998H5.738C5.814 4.64998 5.89 4.56448 5.89 4.47898V2.98748C5.89 2.90198 5.8235 2.83548 5.738 2.83548H4.066C3.9805 2.83548 3.914 2.89248 3.914 2.98748V4.47898C3.9235 4.56448 3.9805 4.64998 4.066 4.64998ZM6.4125 4.64998H8.075C8.17 4.64998 8.2365 4.56448 8.2365 4.47898V2.98748C8.2365 2.90198 8.1795 2.83548 8.075 2.83548H6.4125C6.3365 2.83548 6.27 2.89248 6.27 2.98748V4.47898C6.27 4.56448 6.327 4.64998 6.4125 4.64998ZM8.7305 4.64998H10.412C10.488 4.64998 10.5545 4.56448 10.5545 4.47898V2.98748C10.5545 2.90198 10.488 2.83548 10.412 2.83548H8.7305C8.6545 2.83548 8.588 2.89248 8.588 2.98748V4.47898C8.588 4.56448 8.6545 4.64998 8.7305 4.64998ZM8.7305 2.48398H10.412C10.488 2.48398 10.5545 2.41748 10.5545 2.33198V0.849977C10.5545 0.754977 10.488 0.688477 10.412 0.688477H8.7305C8.6545 0.688477 8.588 0.745477 8.588 0.849977V2.33198C8.588 2.40798 8.6545 2.48398 8.7305 2.48398ZM11.0675 6.77798H12.7395C12.825 6.77798 12.8915 6.71148 12.8915 6.62598V5.12498C12.8915 5.04898 12.825 4.97298 12.7395 4.97298H11.0675C10.9915 4.97298 10.925 5.03948 10.925 5.12498V6.62598C10.925 6.71148 10.9915 6.77798 11.0675 6.77798Z" fill="white"/>
</svg>
