<svg xmlns="http://www.w3.org/2000/svg" width="19" height="19" viewBox="0 0 19 19" fill="none">
  <g clip-path="url(#clip0_183_34)">
    <path d="M18.6412 8.65327L10.3453 0.358581C10.2317 0.244939 10.0968 0.15479 9.94841 0.0932848C9.79997 0.0317792 9.64087 0.00012207 9.4802 0.00012207C9.31952 0.00012207 9.16042 0.0317792 9.01199 0.0932848C8.86355 0.15479 8.72869 0.244939 8.6151 0.358581L6.89323 2.08046L9.07823 4.26546C9.33592 4.17747 9.61316 4.16371 9.8783 4.22573C10.1434 4.28776 10.3858 4.42307 10.5777 4.61623C10.7696 4.8094 10.9034 5.05262 10.9637 5.31816C11.024 5.58369 11.0085 5.86083 10.9189 6.11796L13.0243 8.22458C13.3358 8.1149 13.6753 8.11457 13.9871 8.22364C14.2988 8.3327 14.564 8.54467 14.7392 8.82463C14.9144 9.10458 14.989 9.43584 14.9507 9.76386C14.9125 10.0919 14.7637 10.3971 14.5289 10.6293C14.2911 10.8685 13.9777 11.0177 13.6421 11.0515C13.3065 11.0853 12.9696 11.0015 12.689 10.8145C12.4083 10.6275 12.2013 10.3488 12.1032 10.0261C12.0052 9.70341 12.0223 9.35668 12.1515 9.04514L10.1885 7.08102V12.2502C10.4869 12.3979 10.7256 12.6434 10.865 12.9458C11.0043 13.2481 11.0357 13.5891 10.9541 13.9119C10.8725 14.2346 10.6827 14.5197 10.4165 14.7195C10.1502 14.9193 9.82343 15.0218 9.49072 15.0099C9.15801 14.998 8.83942 14.8725 8.58806 14.6542C8.3367 14.4359 8.16774 14.138 8.10936 13.8103C8.05098 13.4825 8.1067 13.1446 8.26723 12.853C8.42776 12.5613 8.6834 12.3335 8.99154 12.2075V6.99077C8.81376 6.91792 8.65215 6.8106 8.51604 6.67501C8.37993 6.53941 8.272 6.37821 8.19849 6.2007C8.12497 6.0232 8.08731 5.8329 8.08768 5.64077C8.08806 5.44864 8.12646 5.25849 8.20067 5.08127L6.04773 2.92714L0.359603 8.61527C0.245962 8.72885 0.155813 8.86372 0.0943071 9.01215C0.0328015 9.16059 0.00114441 9.31969 0.00114441 9.48036C0.00114441 9.64104 0.0328015 9.80014 0.0943071 9.94857C0.155813 10.097 0.245962 10.2319 0.359603 10.3455L8.65548 18.6413C8.76906 18.755 8.90393 18.8451 9.05236 18.9066C9.2008 18.9681 9.3599 18.9998 9.52057 18.9998C9.68125 18.9998 9.84035 18.9681 9.98878 18.9066C10.1372 18.8451 10.2721 18.755 10.3857 18.6413L18.6424 10.3846C18.756 10.2711 18.8461 10.1362 18.9076 9.98776C18.9692 9.83932 19.0008 9.68022 19.0008 9.51955C19.0008 9.35888 18.9692 9.19978 18.9076 9.05134C18.8461 8.90291 18.756 8.76804 18.6424 8.65446" fill="white"/>
  </g>
  <defs>
    <clipPath id="clip0_183_34">
      <rect width="19" height="19" fill="white"/>
    </clipPath>
  </defs>
</svg>
