<svg xmlns="http://www.w3.org/2000/svg" width="19" height="19" viewBox="0 0 19 19" fill="none">
  <path d="M3.16667 0C2.32681 0 1.52136 0.33363 0.927495 0.927495C0.33363 1.52136 0 2.32681 0 3.16667V15.8333C0 16.6732 0.33363 17.4786 0.927495 18.0725C1.52136 18.6664 2.32681 19 3.16667 19H15.8333C16.6732 19 17.4786 18.6664 18.0725 18.0725C18.6664 17.4786 19 16.6732 19 15.8333V3.16667C19 2.32681 18.6664 1.52136 18.0725 0.927495C17.4786 0.33363 16.6732 0 15.8333 0H3.16667ZM10.9081 13.7803C11.6681 14.3925 12.4267 14.6944 13.1839 14.6859C13.6483 14.6859 14.0044 14.6008 14.2521 14.4305C14.3674 14.3556 14.4613 14.252 14.5244 14.1299C14.5875 14.0077 14.6177 13.8712 14.6121 13.7338C14.6137 13.584 14.5824 13.4356 14.5203 13.2992C14.4583 13.1628 14.3671 13.0416 14.2532 12.9443C14.0055 12.7282 13.5368 12.5115 12.8472 12.2941C12.0189 12.0548 11.3803 11.7452 10.9313 11.3652C10.4908 10.9852 10.2663 10.4549 10.2579 9.77444C10.2579 9.13196 10.5366 8.59398 11.0939 8.1605C11.6357 7.72702 12.3289 7.51028 13.1733 7.51028C14.3499 7.51028 15.2939 7.79669 16.0054 8.3695L15.1926 9.63511C14.8999 9.40757 14.5642 9.24167 14.2057 9.14744C13.8835 9.03949 13.5468 8.98078 13.2071 8.97328C12.806 8.97328 12.4848 9.04681 12.2434 9.19389C12.0041 9.34167 11.8845 9.53519 11.8845 9.77444C11.8845 10.0376 12.0312 10.2621 12.3247 10.4479C12.6202 10.6266 13.1234 10.824 13.8341 11.0401C14.6933 11.2955 15.3049 11.6361 15.6687 12.0618C16.0325 12.4876 16.2144 13.0294 16.2144 13.6874C16.2144 14.3608 15.9551 14.9414 15.4364 15.4291C14.9256 15.909 14.1824 16.1606 13.2071 16.1838C11.9299 16.1838 10.8617 15.8006 10.0024 15.0343L10.9081 13.7803ZM5.07089 14.4537C5.31859 14.6085 5.61661 14.6859 5.96494 14.6859C6.32876 14.6859 6.63065 14.5814 6.87061 14.3724C7.10987 14.1557 7.22985 13.7803 7.23056 13.2462V7.64961H8.79806V13.5481C8.77483 14.4615 8.51165 15.1194 8.0085 15.5219C7.73319 15.7547 7.41311 15.9286 7.068 16.0328C6.74797 16.1303 6.41558 16.1811 6.08106 16.1838C5.5005 16.1838 4.98574 16.0831 4.53678 15.8819C4.05685 15.6659 3.65433 15.2827 3.32922 14.7324L4.42067 13.8383C4.62122 14.1093 4.83796 14.3144 5.07089 14.4537Z" fill="white"/>
</svg>
