<svg xmlns="http://www.w3.org/2000/svg" width="19" height="19" viewBox="0 0 19 19" fill="none">
  <g clip-path="url(#clip0_175_21)">
    <path d="M18.6528 7.05731C18.3143 5.77006 17.6964 4.75831 16.4005 4.75831H14.6742V6.78181C14.6742 8.34456 13.3161 9.66221 11.8662 9.66221H7.26679C6.00242 9.66221 5.01445 10.7357 5.01445 11.9916V16.3141C5.01445 17.5083 6.09519 18.2445 7.26679 18.6426C8.68705 19.072 10.0748 19.1641 11.8336 18.6426C12.9756 18.3053 14.0869 17.6622 14.0869 16.3132V14.5965H9.55069V14.0455H16.4005C17.6964 14.0455 18.2215 13.1259 18.6528 11.7465C19.1157 10.2446 19.1157 8.86516 18.6528 7.05731ZM12.111 15.6387C12.5749 15.6387 12.9756 16.0377 12.9756 16.4975C12.9756 16.9573 12.5739 17.3553 12.112 17.3553C11.649 17.3857 11.2474 16.9563 11.2474 16.4975C11.2168 16.0377 11.6175 15.6387 12.112 15.6387M7.05255 9.07986H11.6194C12.8838 9.07986 13.8717 8.03771 13.8717 6.75046V2.48971C13.8717 1.29461 12.8226 0.375012 11.6184 0.160312C10.1073 -0.0534375 8.4403 -0.0534375 7.05255 0.160312C5.10817 0.497562 4.79926 1.20246 4.79926 2.48971V4.20636H9.3661V4.75736H3.13224C1.8363 4.75736 0.663747 5.58576 0.324222 7.05636C-0.108074 8.77301 -0.108074 9.84556 0.324222 11.624C0.663747 12.973 1.40496 13.923 2.76211 13.923H4.24358V11.8691C4.21202 10.3671 5.53951 9.07986 7.0516 9.07986M6.77424 3.04166C6.54655 3.03706 6.32946 2.94523 6.16834 2.78536C6.00722 2.6255 5.91453 2.40997 5.90965 2.18381C5.90965 1.72401 6.31134 1.32501 6.77328 1.32501C7.23523 1.32501 7.63787 1.72401 7.63787 2.18381C7.63787 2.64361 7.23714 3.04166 6.77424 3.04166Z" fill="white"/>
  </g>
  <defs>
    <clipPath id="clip0_175_21">
      <rect width="19" height="19" fill="white"/>
    </clipPath>
  </defs>
</svg>
