<svg xmlns="http://www.w3.org/2000/svg" width="19" height="19" viewBox="0 0 19 19" fill="none">
  <g clip-path="url(#clip0_183_50)">
    <path d="M2.69929 11.3169C3.41516 11.3169 4.10171 11.0325 4.60791 10.5263C5.1141 10.0201 5.39848 9.33356 5.39848 8.61769C5.39848 7.90182 5.1141 7.21527 4.60791 6.70907C4.10171 6.20288 3.41516 5.9185 2.69929 5.9185C1.98327 5.9185 1.29657 6.20294 0.790259 6.70925C0.283952 7.21555 -0.000488281 7.90226 -0.000488281 8.61828C-0.000488281 9.33431 0.283952 10.021 0.790259 10.5273C1.29657 11.0336 1.98327 11.3181 2.69929 11.3181V11.3169ZM13.9414 5.39838C14.6572 5.39838 15.3438 5.114 15.85 4.6078C16.3562 4.10161 16.6405 3.41506 16.6405 2.69919C16.6405 1.98332 16.3562 1.29677 15.85 0.790574C15.3438 0.284378 14.6572 0 13.9414 0C13.2255 0 12.5389 0.284378 12.0327 0.790574C11.5265 1.29677 11.2422 1.98332 11.2422 2.69919C11.2422 3.41506 11.5265 4.10161 12.0327 4.6078C12.5389 5.114 13.2255 5.39838 13.9414 5.39838ZM8.78761 15.5658C7.83363 15.3636 6.93653 14.9518 6.16123 14.3604C5.38593 13.7689 4.75182 13.0124 4.30479 12.1458C3.58249 12.4744 2.77684 12.5739 1.99629 12.4308C2.536 13.7651 3.39522 14.9465 4.49844 15.871C5.60166 16.7955 6.91509 17.4349 8.32329 17.7329C8.95267 17.8671 9.59629 17.9336 10.2399 17.9301C9.74411 17.2807 9.46719 16.4907 9.44904 15.6738C9.22699 15.6482 9.00627 15.6121 8.78761 15.5658ZM13.3334 18.2792C14.0492 18.2792 14.7358 17.9948 15.242 17.4886C15.7482 16.9824 16.0325 16.2959 16.0325 15.58C16.0325 14.8641 15.7482 14.1776 15.242 13.6714C14.7358 13.1652 14.0492 12.8808 13.3334 12.8808C12.6175 12.8808 11.9309 13.1652 11.4247 13.6714C10.9185 14.1776 10.6342 14.8641 10.6342 15.58C10.6342 16.2959 10.9185 16.9824 11.4247 17.4886C11.9309 17.9948 12.6175 18.2792 13.3334 18.2792ZM17.0894 14.5884C18.2462 13.1284 18.9118 11.3402 18.9914 9.47921C19.0709 7.61822 18.5603 5.77969 17.5324 4.22631C17.2193 4.9599 16.6898 5.58049 16.0147 6.00519C16.5548 7.02458 16.819 8.16751 16.7808 9.32052C16.7427 10.4735 16.4037 11.5965 15.7974 12.578C16.4293 13.0951 16.8816 13.7988 17.0894 14.5884ZM2.49148 4.74762C3.28347 4.70764 4.06896 4.90888 4.74417 5.32475C5.33886 4.46487 6.12993 3.7591 7.0518 3.26594C7.97368 2.77279 8.99982 2.50645 10.0452 2.489C10.0891 1.69337 10.3741 0.929812 10.8645 0.300437C9.19115 0.173773 7.51615 0.524392 6.03404 1.31158C4.55194 2.09877 3.32354 3.29024 2.49148 4.74762Z" fill="white"/>
  </g>
  <defs>
    <clipPath id="clip0_183_50">
      <rect width="19" height="19" fill="white"/>
    </clipPath>
  </defs>
</svg>
