<svg xmlns="http://www.w3.org/2000/svg" width="19" height="19" viewBox="0 0 19 19" fill="none">
  <g clip-path="url(#clip0_183_46)">
    <path d="M13.471 13.0625V16.8482C13.471 17.1016 13.3048 17.3169 13.076 17.3897M13.471 13.0625L8.61097 9.5M13.471 13.0625V5.9375M13.076 17.3897C12.9804 17.4206 12.8782 17.4253 12.7802 17.4033C12.6822 17.3813 12.5919 17.3334 12.5186 17.2647L6.13305 11.3169L4.18238 9.5M13.076 17.3897L16.9504 15.6473C17.0895 15.5847 17.2076 15.4833 17.2905 15.3552C17.3734 15.2271 17.4175 15.0778 17.4175 14.9253V4.0755C17.4176 3.92281 17.3736 3.77334 17.2907 3.64509C17.2078 3.51685 17.0896 3.41531 16.9504 3.35271L13.076 1.61025M8.61097 9.5L6.13305 7.68312L12.5186 1.73533C12.5923 1.6673 12.6826 1.6199 12.7805 1.59794C12.8784 1.57598 12.9803 1.58022 13.076 1.61025M8.61097 9.5L13.471 5.9375M13.471 5.9375V2.15175C13.471 1.89842 13.3048 1.68308 13.076 1.61025M6.13226 7.68312L3.36618 5.56542C3.21432 5.44914 3.02534 5.3921 2.83451 5.40491C2.64368 5.41773 2.46404 5.49954 2.32909 5.63508L1.8153 6.15125C1.50022 6.46792 1.50813 6.9825 1.83351 7.28808L4.18238 9.5M4.18238 9.5L1.83193 11.7119C1.50655 12.0175 1.49863 12.5321 1.81372 12.8487L2.32751 13.3649C2.46245 13.5005 2.6421 13.5823 2.83293 13.5951C3.02376 13.6079 3.21273 13.5509 3.36459 13.4346L6.13305 11.3161" stroke="white" stroke-width="1.5" stroke-linecap="round" stroke-linejoin="round"/>
  </g>
  <defs>
    <clipPath id="clip0_183_46">
      <rect width="19" height="19" fill="white"/>
    </clipPath>
  </defs>
</svg>
